<svg width="15" height="12" viewBox="0 0 15 12" fill="none" xmlns="http://www.w3.org/2000/svg">
<path d="M2.43702 9.15881C2.52753 9.06641 2.65199 9.01251 2.78398 9.01251H14.7541C14.9728 9.01251 15.0822 9.282 14.9276 9.43985L12.563 11.8537C12.4725 11.9461 12.348 12 12.216 12H0.245895C0.0271594 12 -0.0822085 11.7305 0.072415 11.5727L2.43702 9.15881Z" fill="url(#paint0_linear_47_548)"/>
<path d="M2.43702 0.146295C2.53131 0.053898 2.65576 0 2.78398 0H14.7541C14.9728 0 15.0822 0.26949 14.9276 0.427334L12.563 2.8412C12.4725 2.93359 12.348 2.98749 12.216 2.98749H0.245895C0.0271594 2.98749 -0.0822085 2.718 0.072415 2.56016L2.43702 0.146295Z" fill="url(#paint1_linear_47_548)"/>
<path d="M12.563 4.62367C12.4725 4.53128 12.348 4.47738 12.216 4.47738H0.245895C0.0271594 4.47738 -0.0822085 4.74687 0.072415 4.90471L2.43702 7.31858C2.52753 7.41097 2.65199 7.46487 2.78398 7.46487H14.7541C14.9728 7.46487 15.0822 7.19538 14.9276 7.03754L12.563 4.62367Z" fill="url(#paint2_linear_47_548)"/>
<defs>
<linearGradient id="paint0_linear_47_548" x1="13.6106" y1="-1.44178" x2="5.05465" y2="14.6114" gradientUnits="userSpaceOnUse">
<stop stop-color="#00FFA3"/>
<stop offset="1" stop-color="#DC1FFF"/>
</linearGradient>
<linearGradient id="paint1_linear_47_548" x1="9.98869" y1="-3.37248" x2="1.43269" y2="12.6811" gradientUnits="userSpaceOnUse">
<stop stop-color="#00FFA3"/>
<stop offset="1" stop-color="#DC1FFF"/>
</linearGradient>
<linearGradient id="paint2_linear_47_548" x1="11.788" y1="-2.41348" x2="3.23236" y2="13.6401" gradientUnits="userSpaceOnUse">
<stop stop-color="#00FFA3"/>
<stop offset="1" stop-color="#DC1FFF"/>
</linearGradient>
</defs>
</svg>
